<svg xmlns="http://www.w3.org/2000/svg" xmlns:xlink="http://www.w3.org/1999/xlink" width="51" height="51" viewBox="0 0 51 51">
  <defs>
    <clipPath id="clip-path">
      <rect id="Rectangle_53" data-name="Rectangle 53" width="51" height="51" transform="translate(10558 7811)" fill="#fff"/>
    </clipPath>
  </defs>
  <g id="footer-dribble" transform="translate(-10558 -7811)" clip-path="url(#clip-path)">
    <g id="dribbble-line" transform="translate(10558 7811)">
      <path id="Path_65" data-name="Path 65" d="M0,0H51V51H0Z" fill="none"/>
      <path id="Path_66" data-name="Path 66" d="M32.947,19.52a12.7,12.7,0,0,0-2.509-6.941,15.553,15.553,0,0,1-1.468,1.388,20.989,20.989,0,0,1-5.285,3.206c.266.558.51,1.1.726,1.61v0q.091.214.175.431a30.62,30.62,0,0,1,7.429.161c.329.045.638.093.932.14ZM17.976,7.635a73.646,73.646,0,0,1,4.294,6.812,17.716,17.716,0,0,0,4.862-2.819,12.571,12.571,0,0,0,1.27-1.2,12.711,12.711,0,0,0-8.2-2.983,12.842,12.842,0,0,0-2.227.193ZM7.844,17.007q1.63-.041,3.254-.2A50.3,50.3,0,0,0,18.855,15.5q-2-3.469-4.307-6.743a12.791,12.791,0,0,0-6.7,8.251Zm2.441,11.227A22.769,22.769,0,0,1,12.8,25.205a20.138,20.138,0,0,1,8.225-5.248l.1-.029c-.263-.581-.51-1.1-.759-1.587A48,48,0,0,1,11.274,20c-1.5.136-2.844.195-3.833.2a12.709,12.709,0,0,0,2.846,8.027ZM25,32.032a57.345,57.345,0,0,0-2.6-9.107A20.226,20.226,0,0,0,14.688,27.8a15.586,15.586,0,0,0-2.1,2.64A12.782,12.782,0,0,0,25,32.035Zm2.988-1.715a12.759,12.759,0,0,0,4.765-7.769,19.473,19.473,0,0,0-1.986-.376,19.18,19.18,0,0,0-5.073-.053,62.8,62.8,0,0,1,2.294,8.2ZM20.2,36.155A15.953,15.953,0,1,1,36.155,20.2,15.952,15.952,0,0,1,20.2,36.155Z" transform="translate(5.297 5.297)" fill="#707070"/>
    </g>
  </g>
</svg>
