<svg xmlns="http://www.w3.org/2000/svg" width="42.811" height="33.403" viewBox="0 0 42.811 33.403">
  <g id="brand-icon" transform="translate(-2.594 -7.5)">
    <path id="Path_56" data-name="Path 56" d="M27.535,21.965a5,5,0,1,1-7.071,0A5,5,0,0,1,27.535,21.965Z" fill="none" stroke="#2e2e36" stroke-linecap="round" stroke-linejoin="round" stroke-width="2"/>
    <path id="Path_57" data-name="Path 57" d="M38.508,9.964a5,5,0,1,1-7.071,0,5,5,0,0,1,7.071,0" fill="none" stroke="#2e2e36" stroke-linecap="round" stroke-linejoin="round" stroke-width="2"/>
    <path id="Path_58" data-name="Path 58" d="M36,24.5a13.1,13.1,0,0,1,8,2.666" fill="none" stroke="#2e2e36" stroke-linecap="round" stroke-linejoin="round" stroke-width="2"/>
    <path id="Path_59" data-name="Path 59" d="M16.563,9.964a5,5,0,1,1-7.071,0,5,5,0,0,1,7.071,0" fill="none" stroke="#2e2e36" stroke-linecap="round" stroke-linejoin="round" stroke-width="2"/>
    <path id="Path_60" data-name="Path 60" d="M4,27.166A13.1,13.1,0,0,1,12,24.5" fill="none" stroke="#2e2e36" stroke-linecap="round" stroke-linejoin="round" stroke-width="2"/>
    <path id="Path_61" data-name="Path 61" d="M33.182,39.5a15.552,15.552,0,0,0-18.364,0" fill="none" stroke="#2e2e36" stroke-linecap="round" stroke-linejoin="round" stroke-width="2"/>
  </g>
</svg>
