<svg xmlns="http://www.w3.org/2000/svg" width="40.007" height="39.998" viewBox="0 0 40.007 39.998">
  <g id="digital-icon" transform="translate(-5 -5.002)">
    <path id="Path_32" data-name="Path 32" d="M30.834,42.65,26.092,27.5a1.927,1.927,0,0,1,2.654-2.322l14.142,6.6a1.926,1.926,0,0,1-.416,3.63L36.65,36.644l-2.16,6.074a1.928,1.928,0,0,1-3.656-.068Z" fill="none" stroke="#2e2e36" stroke-linecap="round" stroke-linejoin="round" stroke-width="2"/>
    <path id="Path_33" data-name="Path 33" d="M16,28h2" fill="none" stroke="#2e2e36" stroke-linecap="round" stroke-linejoin="round" stroke-width="2"/>
    <path id="Path_34" data-name="Path 34" d="M16,22h4" fill="none" stroke="#2e2e36" stroke-linecap="round" stroke-linejoin="round" stroke-width="2"/>
    <path id="Path_35" data-name="Path 35" d="M16,16H28" fill="none" stroke="#2e2e36" stroke-linecap="round" stroke-linejoin="round" stroke-width="2"/>
    <path id="Path_36" data-name="Path 36" d="M22,38.432a16.034,16.034,0,0,1-11.238-4.674A16.259,16.259,0,0,1,33.757,10.764,16.041,16.041,0,0,1,38.432,22" fill="none" stroke="#2e2e36" stroke-linecap="round" stroke-linejoin="round" stroke-width="2"/>
  </g>
</svg>
