<svg xmlns="http://www.w3.org/2000/svg" width="42" height="38" viewBox="0 0 42 38">
  <g id="web-icon" transform="translate(-3 -5)">
    <path id="Path_46" data-name="Path 46" d="M40,42H8a4,4,0,0,1-4-4V10A4,4,0,0,1,8,6H40a4,4,0,0,1,4,4V38A4,4,0,0,1,40,42Z" fill="none" stroke="#2e2e36" stroke-linecap="round" stroke-linejoin="round" stroke-width="2"/>
    <path id="Path_47" data-name="Path 47" d="M4,16H44" fill="none" stroke="#2e2e36" stroke-linecap="round" stroke-linejoin="round" stroke-width="2"/>
    <path id="Path_48" data-name="Path 48" d="M9.559,10.98a.01.01,0,1,0,.01.01A.009.009,0,0,0,9.559,10.98Z" fill="none" stroke="#2e2e36" stroke-linecap="round" stroke-linejoin="round" stroke-width="2"/>
    <path id="Path_49" data-name="Path 49" d="M14.645,10.98a.009.009,0,0,0-.01.01.011.011,0,0,0,.01.01.01.01,0,0,0,0-.02Z" fill="none" stroke="#2e2e36" stroke-linecap="round" stroke-linejoin="round" stroke-width="2"/>
    <path id="Path_50" data-name="Path 50" d="M19.723,10.98a.01.01,0,1,0,.01.01A.009.009,0,0,0,19.723,10.98Z" fill="none" stroke="#2e2e36" stroke-linecap="round" stroke-linejoin="round" stroke-width="2"/>
    <path id="Path_51" data-name="Path 51" d="M18,16V42" fill="none" stroke="#2e2e36" stroke-linecap="round" stroke-linejoin="round" stroke-width="2"/>
    <path id="Path_52" data-name="Path 52" d="M18,28H44" fill="none" stroke="#2e2e36" stroke-linecap="round" stroke-linejoin="round" stroke-width="2"/>
  </g>
</svg>
