<svg xmlns="http://www.w3.org/2000/svg" xmlns:xlink="http://www.w3.org/1999/xlink" width="51" height="51" viewBox="0 0 51 51">
  <defs>
    <clipPath id="clip-path">
      <rect id="Rectangle_54" data-name="Rectangle 54" width="51" height="51" transform="translate(10629 7811)" fill="#fff"/>
    </clipPath>
  </defs>
  <g id="footer-insta" transform="translate(-10629 -7811)" clip-path="url(#clip-path)">
    <g id="instagram-line" transform="translate(10629 7811)">
      <path id="Path_67" data-name="Path 67" d="M0,0H51V51H0Z" fill="none"/>
      <path id="Path_68" data-name="Path 68" d="M21.68,16.451a5.229,5.229,0,1,0,5.229,5.229A5.229,5.229,0,0,0,21.68,16.451Zm0-3.486a8.715,8.715,0,1,1-8.715,8.715A8.715,8.715,0,0,1,21.68,12.965Zm11.329-.436A2.179,2.179,0,1,1,30.83,10.35,2.179,2.179,0,0,1,33.009,12.529ZM21.68,7.736c-4.312,0-5.016.012-7.022.1a9.469,9.469,0,0,0-3.134.579,5.438,5.438,0,0,0-3.109,3.108,9.456,9.456,0,0,0-.577,3.134c-.091,1.924-.1,2.6-.1,7.022,0,4.312.012,5.016.1,7.022a9.507,9.507,0,0,0,.577,3.132,5.419,5.419,0,0,0,3.106,3.108,9.489,9.489,0,0,0,3.137.58c1.924.091,2.6.1,7.022.1,4.312,0,5.016-.012,7.022-.1a9.525,9.525,0,0,0,3.132-.577,5.091,5.091,0,0,0,1.882-1.224,5.039,5.039,0,0,0,1.227-1.882,9.529,9.529,0,0,0,.579-3.137c.091-1.924.1-2.6.1-7.022,0-4.312-.012-5.016-.1-7.022a9.487,9.487,0,0,0-.579-3.134,5.074,5.074,0,0,0-1.225-1.882,5.027,5.027,0,0,0-1.882-1.227A9.465,9.465,0,0,0,28.7,7.837C26.778,7.746,26.105,7.736,21.68,7.736Zm0-3.486c4.736,0,5.327.017,7.185.1a12.84,12.84,0,0,1,4.232.81,8.5,8.5,0,0,1,3.089,2.01,8.554,8.554,0,0,1,2.01,3.089A12.876,12.876,0,0,1,39,14.5c.082,1.858.1,2.449.1,7.185s-.017,5.327-.1,7.185a12.885,12.885,0,0,1-.81,4.232,8.9,8.9,0,0,1-5.1,5.1,12.876,12.876,0,0,1-4.232.81c-1.858.082-2.449.1-7.185.1s-5.327-.017-7.185-.1a12.885,12.885,0,0,1-4.232-.81,8.9,8.9,0,0,1-5.1-5.1,12.831,12.831,0,0,1-.81-4.232c-.082-1.858-.1-2.449-.1-7.185s.017-5.327.1-7.185a12.831,12.831,0,0,1,.81-4.232,8.506,8.506,0,0,1,2.01-3.089,8.535,8.535,0,0,1,3.089-2.01,12.831,12.831,0,0,1,4.232-.81C16.353,4.273,16.944,4.25,21.68,4.25Z" transform="translate(3.82 3.82)" fill="#707070"/>
    </g>
  </g>
</svg>
